<svg xmlns="http://www.w3.org/2000/svg" xmlns:xlink="http://www.w3.org/1999/xlink" viewBox="0 0 256 195"><defs><style>.cls-1{fill:none;}.cls-2{fill:url(#Degradado_sin_nombre_3);}.cls-3{fill:url(#Degradado_sin_nombre_2);}.cls-4{fill:#2684ff;}</style><linearGradient id="Degradado_sin_nombre_3" x1="-168.08" y1="523.9" x2="-165.85" y2="523.9" gradientTransform="matrix(0, 41.46, 41.46, 0, -21594.06, 6991.02)" gradientUnits="userSpaceOnUse"><stop offset="0" stop-color="#2684ff"/><stop offset="0.82" stop-color="#0052cc"/><stop offset="1" stop-color="#0052cc"/></linearGradient><linearGradient id="Degradado_sin_nombre_2" x1="-163.03" y1="521.27" x2="-160.8" y2="521.27" gradientTransform="matrix(13.89, 29.07, 29.07, -13.89, -12787.57, 12090.67)" gradientUnits="userSpaceOnUse"><stop offset="0" stop-color="#2684ff"/><stop offset="0.62" stop-color="#0052cc"/><stop offset="1" stop-color="#0052cc"/></linearGradient></defs><g id="Capa_2" data-name="Capa 2"><g id="Capa_1-2" data-name="Capa 1"><rect class="cls-1" width="256" height="195"/><circle class="cls-2" cx="128" cy="52.28" r="45.05"/><path class="cls-3" d="M124.16,186.68A217.27,217.27,0,0,1,52.82,112.1a5,5,0,0,1,2.19-7L89.13,88.36a5.08,5.08,0,0,1,6.59,2A168.69,168.69,0,0,0,169,156.68a219.06,219.06,0,0,1-37.12,30A7.28,7.28,0,0,1,124.16,186.68Z"/><path class="cls-4" d="M131.84,186.68a217.18,217.18,0,0,0,71.34-74.58,5.05,5.05,0,0,0-2.17-7L166.86,88.36a5.09,5.09,0,0,0-6.59,2A168.61,168.61,0,0,1,87,156.68a217.31,217.31,0,0,0,37.12,30A7.28,7.28,0,0,0,131.84,186.68Z"/></g></g></svg>